<?xml version="1.0" standalone="no"?>
<!DOCTYPE svg PUBLIC "-//W3C//DTD SVG 20010904//EN"
 "http://www.w3.org/TR/2001/REC-SVG-20010904/DTD/svg10.dtd">
<svg version="1.0" xmlns="http://www.w3.org/2000/svg"
 width="810.000000pt" height="810.000000pt" viewBox="0 0 810.000000 810.000000"
 preserveAspectRatio="xMidYMid meet">
<metadata>
Created by potrace 1.11, written by Peter Selinger 2001-2013
</metadata>
<g transform="translate(0.000000,810.000000) scale(0.100000,-0.100000)"
fill="#000000" stroke="none">
<path d="M3704 7210 c-214 -148 -397 -275 -406 -282 -9 -7 -128 -89 -263 -183
-400 -277 -769 -534 -787 -547 -9 -7 -69 -49 -132 -93 l-116 -80 1045 -3 c575
-1 1516 -1 2091 0 l1046 3 -633 440 c-348 242 -655 456 -683 475 -28 20 -116
80 -195 135 -190 132 -166 116 -336 234 -82 57 -171 119 -196 137 l-46 34
-389 -270z m1165 -535 l753 -460 -761 -3 c-418 -1 -1103 -1 -1522 0 l-760 3
758 463 c417 254 763 461 768 460 6 -2 350 -210 764 -463z"/>
<path d="M3544 6673 l-541 -318 543 -3 c299 -1 789 -1 1088 0 l544 3 -536 315
c-295 173 -541 316 -546 318 -6 1 -254 -141 -552 -315z"/>
<path d="M1780 5835 l0 -85 2330 0 2330 0 0 85 0 85 -2330 0 -2330 0 0 -85z"/>
<path d="M3200 5610 l0 -80 315 0 315 0 0 80 0 80 -315 0 -315 0 0 -80z"/>
<path d="M4400 5610 l0 -80 315 0 315 0 0 80 0 80 -315 0 -315 0 0 -80z"/>
<path d="M5600 5610 l0 -80 315 0 315 0 0 80 0 80 -315 0 -315 0 0 -80z"/>
<path d="M1990 5600 l0 -80 310 0 310 0 0 80 0 80 -310 0 -310 0 0 -80z"/>
<path d="M2060 4786 l0 -674 -62 14 c-63 13 -258 48 -333 59 -22 4 -51 8 -65
10 -14 3 -56 7 -95 11 -38 3 -81 7 -95 10 -14 2 -112 7 -218 11 -145 4 -196 3
-201 -6 -4 -6 -7 -35 -6 -64 l1 -52 135 -1 c130 -1 293 -10 334 -18 11 -2 54
-7 95 -12 41 -4 77 -8 80 -9 3 -1 30 -5 60 -9 30 -4 98 -16 150 -27 52 -10
109 -21 125 -24 17 -2 44 -9 60 -13 l30 -8 3 -142 c2 -93 -1 -142 -8 -142 -6
0 -43 9 -83 21 -39 11 -103 29 -142 39 -38 11 -218 62 -400 113 -215 61 -332
90 -336 83 -4 -6 -10 -31 -15 -56 -10 -55 -7 -44 -23 -110 -7 -30 -22 -95 -33
-143 -11 -48 -19 -89 -17 -91 4 -3 1037 -176 1052 -176 4 0 7 -12 7 -26 0 -27
0 -27 -105 -8 -10 2 -35 6 -55 9 -20 3 -46 7 -59 10 -21 4 -449 76 -536 91
-16 2 -37 7 -45 9 -8 2 -37 6 -64 10 -26 3 -79 12 -117 19 l-69 13 -1 -26 c0
-14 -2 -35 -4 -46 -2 -11 -7 -47 -11 -80 -3 -33 -10 -82 -14 -110 -4 -27 -7
-51 -6 -52 3 -3 85 -12 166 -18 47 -3 101 -8 120 -10 19 -2 73 -7 120 -10 47
-4 101 -8 120 -10 19 -2 71 -6 115 -10 44 -3 96 -8 115 -10 20 -2 78 -7 130
-11 52 -3 102 -8 110 -10 8 -1 32 -3 53 -3 36 -1 37 -2 37 -36 0 -36 0 -36
-37 -31 -21 3 -76 8 -123 11 -47 3 -101 8 -120 10 -34 4 -144 13 -245 20 -55
4 -173 13 -250 20 -27 3 -84 7 -125 10 -41 3 -96 8 -122 11 -45 5 -48 4 -49
-18 0 -13 -3 -67 -5 -120 l-5 -98 73 0 c40 -1 179 -3 308 -5 247 -5 680 -14
693 -15 4 0 7 -16 7 -35 l0 -35 -491 0 c-481 0 -492 0 -529 -21 -81 -46 -93
-151 -24 -214 l27 -25 1442 0 1442 0 8 53 c5 28 8 54 7 57 0 3 14 35 31 70 79
161 204 133 261 -59 17 -59 16 -52 16 -91 l0 -30 1469 0 1469 0 17 26 c44 67
24 154 -44 192 -38 22 -45 22 -520 22 l-481 0 0 35 0 35 58 0 c31 1 152 3 267
5 116 3 326 7 469 9 142 3 261 8 264 11 7 6 2 142 -7 221 0 7 -15 10 -33 9
-18 -2 -73 -6 -123 -10 -49 -3 -106 -8 -125 -10 -19 -2 -73 -7 -120 -10 -47
-3 -96 -8 -110 -10 -14 -2 -70 -6 -125 -10 -55 -4 -116 -8 -135 -10 -19 -2
-73 -7 -120 -10 -47 -3 -102 -8 -122 -11 -38 -5 -38 -5 -38 31 0 34 1 35 43
36 23 0 49 2 57 3 8 2 51 6 95 10 44 4 103 9 130 11 28 3 82 7 120 10 39 3 93
8 120 10 28 2 84 7 125 10 41 4 89 8 105 10 17 2 72 6 123 10 121 9 142 11
147 17 4 4 -18 201 -30 263 -2 11 -4 26 -4 34 -1 13 -26 12 -109 -4 -10 -1
-37 -6 -62 -10 -54 -9 -41 -7 -265 -45 -186 -32 -212 -36 -267 -45 -18 -3 -58
-10 -88 -15 -30 -5 -73 -12 -95 -16 -22 -3 -58 -10 -80 -15 -59 -13 -65 -11
-65 15 0 21 6 25 43 31 70 12 76 13 262 44 99 17 197 33 219 37 21 3 48 8 60
10 22 4 188 31 241 39 17 2 72 12 123 21 l93 17 -4 31 c-3 17 -13 64 -22 105
-9 40 -18 78 -19 85 -17 89 -42 179 -51 182 -11 5 -108 -21 -550 -147 -115
-33 -217 -62 -226 -64 -9 -2 -48 -13 -86 -24 -39 -12 -73 -21 -77 -21 -3 0 -6
65 -6 144 l0 143 88 18 c48 9 96 19 107 21 11 2 34 7 50 9 17 3 37 8 45 10 8
2 39 7 69 10 30 4 63 8 74 11 10 2 42 6 71 9 28 3 67 7 86 10 61 7 262 18 365
19 l100 1 0 60 0 60 -140 -1 c-129 0 -321 -10 -377 -19 -13 -2 -45 -6 -73 -10
-119 -15 -195 -26 -265 -40 -41 -8 -86 -17 -100 -20 -14 -3 -42 -8 -62 -11
l-38 -7 0 677 0 676 -235 0 -235 0 -2 -741 -3 -741 -180 -63 c-195 -67 -225
-79 -417 -161 -70 -30 -129 -54 -132 -54 -3 0 -6 396 -6 880 l0 880 -235 0
-235 0 0 -1008 0 -1007 -46 -25 c-26 -13 -108 -66 -183 -117 -126 -85 -137
-91 -156 -78 -11 8 -93 63 -182 122 l-162 108 0 1003 -1 1002 -235 0 -235 0 0
-879 0 -879 -122 55 c-140 63 -411 167 -540 209 l-88 28 0 738 0 738 -235 0
-235 0 0 -674z m602 -977 c159 -58 373 -143 506 -202 l112 -50 0 -104 c0 -80
-3 -104 -12 -100 -16 6 -167 49 -323 92 -66 19 -167 47 -225 63 -58 17 -124
35 -147 41 l-43 12 0 144 c0 82 4 145 9 145 5 0 60 -18 123 -41z m3028 -122
l0 -142 -152 -43 c-84 -23 -241 -68 -348 -98 -107 -31 -205 -58 -217 -61 -23
-5 -23 -4 -23 99 l0 104 38 17 c197 92 640 264 685 266 15 1 17 -12 17 -142z
m-2990 -417 c63 -10 131 -21 150 -24 19 -3 91 -14 160 -26 69 -12 137 -23 153
-26 15 -2 42 -7 60 -10 17 -4 38 -7 45 -7 6 0 12 -13 12 -29 0 -24 -3 -28 -22
-24 -13 3 -50 9 -83 15 -33 5 -87 15 -120 20 -33 6 -77 13 -99 17 -21 3 -48 8
-60 10 -11 2 -88 15 -171 29 -205 34 -195 31 -195 60 0 21 4 24 28 20 15 -3
79 -14 142 -25z m1174 -55 c153 -103 163 -112 133 -112 -63 0 -203 -128 -236
-216 l-18 -51 -2 54 c0 29 3 58 8 64 16 20 19 77 4 83 -7 3 -13 18 -13 35 0
24 3 28 19 23 24 -7 29 1 40 59 8 46 8 46 -23 54 -27 7 -31 13 -34 45 -2 20 0
37 4 37 4 0 58 -34 118 -75z m606 31 c0 -43 0 -44 -45 -55 -50 -12 -55 -28
-34 -90 10 -29 15 -32 45 -28 32 5 34 3 34 -24 0 -24 -4 -29 -25 -29 -22 0
-25 -4 -25 -32 0 -42 13 -63 34 -55 12 5 16 0 16 -24 0 -17 -6 -32 -15 -35 -8
-4 -15 -18 -15 -33 0 -20 -6 -12 -24 32 -39 95 -106 171 -182 208 l-44 21 44
33 c38 30 227 155 234 155 1 0 2 -20 2 -44z m1210 9 c0 -14 -3 -25 -7 -26 -5
0 -18 -2 -30 -5 -67 -12 -440 -76 -467 -79 -17 -2 -67 -11 -111 -20 -113 -21
-125 -20 -125 10 0 14 3 25 8 25 7 0 113 17 147 24 11 2 43 7 70 10 28 4 57 9
65 11 14 4 61 11 120 20 41 6 94 15 110 20 8 2 38 7 65 10 28 3 66 10 85 15
61 14 70 12 70 -15z m-1570 -135 c0 -5 -7 -7 -15 -4 -8 4 -12 10 -9 15 6 11
24 2 24 -11z m-1445 -75 c44 -3 100 -8 125 -10 25 -2 72 -7 105 -10 33 -2 83
-7 110 -9 67 -6 226 -19 248 -20 14 0 17 -7 15 -31 -3 -33 -3 -33 -138 -21
-36 3 -101 8 -145 11 -44 3 -93 8 -110 10 -16 2 -73 7 -125 11 -52 3 -106 8
-120 9 -14 2 -44 3 -67 4 -42 1 -43 2 -43 36 0 34 1 35 33 30 17 -2 68 -7 112
-10z m3015 -41 c0 -34 0 -34 -47 -35 -27 0 -55 -2 -65 -4 -9 -2 -56 -6 -105
-10 -48 -3 -112 -8 -140 -11 -130 -11 -163 -13 -238 -19 -44 -4 -95 -8 -112
-10 -31 -4 -33 -2 -33 25 0 35 6 37 135 46 55 3 107 7 115 9 8 2 58 6 110 10
52 4 111 9 130 10 19 2 73 7 120 11 47 3 86 7 87 8 1 1 11 2 23 3 16 1 20 -4
20 -33z m-2472 -163 c59 -1 62 -2 62 -26 l0 -25 -375 0 -375 0 0 31 0 30 313
-5 c171 -3 340 -5 375 -5z m2472 -40 l0 -31 -370 0 -370 0 0 24 c0 23 2 24
102 25 56 1 103 3 104 4 1 1 122 3 268 5 l266 3 0 -30z m-1210 -11 c0 -11 -7
-20 -15 -20 -8 0 -15 9 -15 20 0 11 7 20 15 20 8 0 15 -9 15 -20z"/>
<path d="M5840 2175 c-48 -22 -78 -52 -105 -105 -30 -61 -36 -88 -36 -183 0
-185 73 -296 202 -310 102 -11 186 54 213 165 5 22 2 28 -22 36 -15 5 -35 13
-44 17 -13 5 -21 -2 -33 -31 -25 -61 -52 -84 -98 -84 -75 0 -117 72 -117 201
0 123 46 199 121 199 33 0 76 -33 92 -70 l12 -28 48 14 c30 10 47 20 47 30 0
31 -51 109 -86 134 -46 31 -141 38 -194 15z"/>
<path d="M7084 2171 c-86 -39 -116 -157 -61 -240 30 -44 67 -67 169 -100 54
-18 68 -27 76 -49 19 -55 -19 -102 -84 -104 -45 -1 -74 19 -96 69 -17 38 -23
44 -41 39 -12 -3 -33 -6 -46 -6 -21 0 -23 -3 -16 -37 19 -104 78 -160 172
-167 130 -8 214 60 215 175 1 59 -17 110 -50 142 -15 14 -70 43 -122 64 -87
35 -95 40 -98 68 -5 37 19 55 73 55 45 0 67 -16 80 -59 7 -21 11 -23 53 -17
25 3 47 8 49 10 11 10 -12 80 -38 115 -44 62 -150 80 -235 42z"/>
<path d="M563 2172 c-10 -7 -14 -581 -3 -583 3 -1 24 -2 48 -3 l42 -2 0 123 0
123 33 0 c17 0 42 -8 53 -18 22 -17 114 -172 114 -191 0 -28 63 -43 132 -32
12 2 -84 180 -118 220 l-33 38 37 16 c54 25 76 61 80 133 3 47 0 70 -16 101
-36 69 -57 77 -218 79 -77 1 -145 -1 -151 -4z m268 -113 c26 -41 22 -101 -9
-118 -19 -10 -54 -14 -124 -12 l-48 1 0 74 0 74 86 -3 c61 -1 89 -6 95 -16z"/>
<path d="M1040 2125 l0 -55 50 0 50 0 0 55 0 55 -50 0 -50 0 0 -55z"/>
<path d="M3230 2178 c0 -2 16 -55 35 -118 20 -63 54 -176 76 -250 22 -74 46
-156 55 -181 l15 -46 50 2 c27 1 51 4 53 6 2 2 18 56 36 119 18 63 45 153 60
200 34 105 80 256 80 264 0 3 -24 6 -54 6 -64 0 -53 23 -121 -244 -25 -99 -47
-182 -49 -184 -2 -2 -11 20 -19 50 -19 64 -88 324 -94 356 -5 20 -11 22 -64
22 -33 0 -59 -1 -59 -2z"/>
<path d="M4323 2013 c4 -91 7 -225 7 -298 l0 -131 40 0 c22 0 41 5 41 11 1 5
2 15 4 20 1 6 3 13 3 17 1 3 15 -7 31 -23 16 -16 37 -30 45 -30 9 -1 22 -2 29
-3 47 -7 118 56 136 121 16 57 13 176 -5 225 -34 91 -110 127 -184 89 l-40
-21 0 95 0 95 -57 0 -56 0 6 -167z m229 -107 c19 -22 19 -24 23 -101 7 -140
-98 -193 -144 -74 -15 40 -8 140 13 171 28 43 76 45 108 4z"/>
<path d="M5132 1883 l3 -297 45 -1 45 0 2 298 3 297 -50 0 -50 0 2 -297z"/>
<path d="M5320 2125 l0 -55 50 0 50 0 0 55 0 55 -50 0 -50 0 0 -55z"/>
<path d="M6620 2080 l0 -99 -36 24 c-70 48 -138 24 -181 -64 -24 -48 -28 -68
-28 -141 0 -68 5 -94 24 -132 24 -50 63 -85 102 -92 32 -5 90 19 111 47 l18
22 0 -31 c0 -31 1 -32 42 -30 l42 2 3 297 3 297 -50 0 -50 0 0 -100z m-35
-160 c26 -22 37 -59 36 -123 -2 -93 -43 -147 -96 -127 -48 17 -74 138 -46 211
19 52 69 70 106 39z"/>
<path d="M1310 2008 c-64 -32 -92 -95 -94 -203 -1 -68 3 -88 26 -135 38 -77
81 -99 185 -92 34 3 90 58 106 106 l15 42 -46 13 c-24 6 -45 10 -46 9 -1 -2
-9 -20 -19 -40 -13 -29 -23 -38 -41 -38 -61 0 -86 38 -86 132 0 71 14 107 49
124 32 16 61 6 80 -28 14 -26 20 -28 51 -23 50 9 54 18 31 69 -16 37 -29 51
-63 66 -56 26 -94 25 -148 -2z"/>
<path d="M1717 2016 c-50 -18 -68 -36 -97 -92 -44 -90 -29 -238 32 -299 14
-14 43 -31 66 -39 167 -59 296 154 206 339 -43 88 -122 122 -207 91z m108
-110 c28 -28 40 -80 32 -138 -16 -120 -135 -133 -164 -18 -31 120 60 228 132
156z"/>
<path d="M2145 2003 c-25 -28 -25 -28 -25 -5 0 21 -4 23 -47 20 -45 -3 -48 -5
-47 -30 0 -16 1 -112 2 -216 l2 -188 45 0 c41 0 45 2 45 26 1 269 13 314 77
308 32 -3 36 -1 49 37 18 52 18 50 -11 63 -40 18 -62 14 -90 -15z"/>
<path d="M2342 2011 c-57 -27 -82 -88 -62 -159 12 -45 50 -73 143 -102 68 -22
77 -33 61 -74 -9 -23 -86 -22 -107 2 -10 10 -17 24 -17 31 0 9 -13 11 -47 6
-26 -3 -49 -8 -51 -9 -6 -6 18 -56 39 -80 53 -61 165 -68 241 -14 55 38 61
147 11 194 -13 12 -61 35 -105 50 -44 14 -82 32 -85 40 -17 46 81 62 115 19
18 -23 22 -24 60 -12 l41 12 -18 40 c-21 47 -53 65 -126 71 -36 4 -62 -1 -93
-15z"/>
<path d="M2777 2016 c-50 -18 -68 -36 -97 -93 -33 -64 -34 -176 -3 -245 67
-147 267 -131 319 25 27 80 23 154 -12 223 -43 87 -123 121 -207 90z m100
-101 c46 -32 55 -160 15 -214 -28 -38 -80 -40 -112 -6 -22 24 -25 35 -25 105
0 69 3 81 24 104 28 29 66 34 98 11z"/>
<path d="M3762 2010 c-61 -37 -94 -118 -93 -227 0 -76 25 -138 70 -176 35 -29
56 -33 143 -28 26 1 85 57 97 91 10 29 9 30 -32 41 -36 9 -42 9 -54 -8 -26
-37 -35 -44 -60 -41 -30 3 -61 41 -69 81 l-5 28 103 -1 c57 -1 110 -1 119 -1
13 1 16 9 13 39 -8 70 -13 92 -34 138 -35 75 -129 106 -198 64z m115 -94 c18
-16 28 -76 14 -77 -6 0 -31 0 -56 0 -73 0 -74 0 -70 20 13 69 69 98 112 57z"/>
<path d="M4185 2003 c-25 -28 -25 -28 -25 -5 0 21 -4 23 -47 20 -45 -3 -48 -5
-47 -30 0 -16 1 -113 2 -216 l2 -188 43 2 c23 1 44 2 47 3 3 0 5 63 6 140 0
115 3 143 18 165 14 23 24 27 53 24 32 -3 36 -1 49 37 18 52 18 50 -11 63 -40
18 -62 14 -90 -15z"/>
<path d="M4832 2021 c-18 -5 -41 -16 -51 -25 -16 -15 -45 -86 -37 -93 2 -2 19
-6 38 -9 29 -5 40 -1 62 21 21 21 33 25 54 20 38 -9 53 -25 50 -49 -2 -16 -19
-26 -73 -43 -96 -31 -112 -41 -130 -78 -22 -47 -19 -99 8 -140 36 -55 115 -64
173 -20 l32 24 6 -22 c4 -19 12 -23 48 -22 24 0 42 5 41 10 -8 35 -13 107 -17
225 -1 74 -7 143 -11 153 -17 40 -122 66 -193 48z m114 -275 c-4 -67 -46 -105
-93 -83 -33 15 -36 74 -5 92 15 9 77 31 94 34 3 1 5 -19 4 -43z"/>
<path d="M1043 1803 l2 -217 45 -1 45 -1 1 218 2 218 -49 0 -48 0 2 -217z"/>
<path d="M5322 1805 c1 -118 4 -215 7 -216 3 -1 24 -2 46 -2 l40 -2 1 218 1
217 -48 0 -47 0 0 -215z"/>
<path d="M6209 1697 c-1 -1 -3 -25 -5 -53 -5 -57 -1 -61 56 -60 l35 1 0 55 0
55 -42 2 c-24 1 -43 1 -44 0z"/>
<path d="M6816 1693 c-12 -12 -7 -101 7 -105 6 -2 28 -4 47 -4 l35 1 0 55 0
55 -41 2 c-23 2 -44 0 -48 -4z"/>
<path d="M7452 1641 l3 -55 45 -1 45 0 0 55 0 55 -48 1 -48 1 3 -56z"/>
<path d="M1550 1236 c0 -21 21 -31 30 -15 5 7 6 17 4 21 -9 14 -34 9 -34 -6z"/>
<path d="M1833 1240 c-25 -10 -31 -22 -10 -17 9 1 12 -30 12 -130 l0 -132 33
1 c20 1 28 4 21 9 -8 4 -13 32 -14 68 -2 65 16 96 52 89 15 -3 18 -15 21 -80
2 -66 0 -77 -15 -81 -10 -3 5 -5 32 -6 31 0 45 3 37 8 -9 5 -15 35 -17 87 -4
91 -17 109 -66 92 -16 -5 -29 -14 -29 -20 0 -5 -4 -7 -9 -4 -4 3 -8 33 -7 66
1 62 -2 66 -41 50z"/>
<path d="M2070 1236 c0 -18 16 -29 30 -21 13 8 1 35 -16 35 -8 0 -14 -6 -14
-14z"/>
<path d="M2465 1240 c-3 -5 -2 -17 3 -25 4 -9 6 -29 4 -45 -4 -25 -7 -28 -27
-20 -48 18 -108 -50 -103 -118 3 -36 42 -72 77 -72 16 0 33 5 37 11 5 8 9 8
14 -1 8 -13 60 -3 60 12 0 5 -4 7 -9 4 -13 -8 -17 26 -15 152 1 101 -1 112
-17 112 -10 0 -21 -4 -24 -10z m-6 -114 c11 -13 15 -55 12 -113 -1 -15 -9 -25
-26 -29 -35 -9 -65 27 -65 75 0 63 48 104 79 67z"/>
<path d="M2580 1236 c0 -21 21 -31 30 -15 5 7 6 17 4 21 -9 14 -34 9 -34 -6z"/>
<path d="M4534 1239 c-32 -9 -93 -69 -95 -92 0 -7 -2 -23 -5 -36 -6 -35 15
-93 44 -118 34 -29 91 -42 142 -33 55 10 64 21 62 74 -2 29 3 50 14 60 14 15
11 16 -38 15 -29 -1 -45 -3 -35 -6 11 -3 17 -15 18 -36 0 -18 2 -44 3 -59 1
-22 -3 -28 -26 -33 -70 -16 -122 23 -133 100 -18 117 55 186 146 139 17 -8 34
-25 39 -37 8 -19 9 -17 9 13 0 19 -4 42 -9 50 -7 12 -10 12 -10 1 0 -9 -8 -11
-25 -7 -55 13 -71 14 -101 5z"/>
<path d="M5078 1118 c-31 -73 -63 -137 -72 -143 -22 -14 -42 1 -92 66 l-42 54
29 17 c51 31 47 98 -7 118 -14 6 -57 10 -97 10 -62 0 -69 -2 -52 -14 16 -11
18 -28 19 -122 1 -90 -2 -112 -16 -126 -16 -16 -14 -17 40 -16 31 1 50 3 41 5
-19 5 -29 32 -29 86 0 57 27 48 80 -27 l45 -63 80 -1 c59 -1 74 1 57 8 -22 9
-22 11 -7 46 8 20 15 37 15 38 0 1 25 1 55 1 l56 0 11 -38 c9 -31 9 -40 -2
-47 -8 -5 9 -8 40 -7 43 0 50 2 37 12 -9 6 -39 65 -67 129 -27 65 -54 124 -58
132 -5 9 -26 -30 -64 -118z m-188 52 c0 -33 -23 -60 -51 -60 -10 0 -22 -1 -26
-2 -5 -2 -9 23 -9 54 -2 64 10 75 59 51 20 -10 27 -21 27 -43z m280 -96 c0 -2
-21 -4 -46 -4 -25 0 -44 3 -42 8 2 4 12 29 22 56 l20 48 23 -52 c13 -29 23
-54 23 -56z"/>
<path d="M6295 1242 c-77 -17 -119 -102 -94 -190 29 -105 166 -129 232 -41 79
107 -12 260 -138 231z m69 -23 c68 -31 68 -207 0 -238 -37 -16 -56 -14 -89 13
-29 23 -30 27 -30 104 0 71 3 83 24 106 26 28 56 33 95 15z"/>
<path d="M6532 1233 c-5 -10 -8 -25 -7 -33 1 -8 5 -46 9 -84 5 -63 15 -100 17
-65 0 8 2 21 3 29 2 8 6 45 10 81 6 52 4 68 -8 78 -12 10 -16 9 -24 -6z"/>
<path d="M6672 1237 c-6 -7 -10 -24 -8 -38 3 -13 7 -53 11 -89 6 -60 14 -91
16 -59 0 8 2 23 4 34 15 80 16 142 2 153 -11 10 -17 9 -25 -1z"/>
<path d="M6813 1238 c-6 -7 -9 -22 -8 -33 14 -139 18 -166 21 -162 5 4 6 16
19 123 5 47 3 63 -8 72 -11 10 -17 9 -24 0z"/>
<path d="M1266 1224 c16 -16 19 -34 18 -128 -1 -90 -4 -111 -18 -122 -14 -10
-8 -12 39 -12 49 1 53 2 36 14 -27 20 -29 114 -1 114 11 0 30 -19 49 -49 48
-74 56 -79 144 -79 64 -1 75 1 64 12 -9 9 -13 40 -12 95 0 86 -3 90 -49 72
-18 -7 -18 -8 -2 -14 14 -6 16 -18 14 -79 -3 -65 -5 -73 -24 -76 -25 -4 -62
25 -98 76 l-27 39 31 31 c35 35 38 60 11 93 -17 21 -29 24 -106 28 -85 3 -87
3 -69 -15z m132 -17 c21 -17 15 -72 -10 -85 -54 -27 -63 -22 -64 40 -1 45 2
58 15 61 19 4 41 -2 59 -16z"/>
<path d="M5250 1208 l0 -33 18 23 c14 17 26 23 48 20 l29 -3 0 -115 c0 -109
-1 -115 -23 -126 -20 -10 -14 -11 40 -12 40 0 56 2 43 7 -18 7 -20 17 -20 125
-1 70 3 120 10 125 16 12 73 -7 78 -27 3 -9 5 -2 6 16 l1 32 -115 0 -115 0 0
-32z"/>
<path d="M5510 1233 c26 -10 30 -26 30 -124 0 -81 3 -99 20 -119 23 -27 82
-40 127 -28 52 13 66 45 68 152 1 51 5 98 9 104 10 16 66 15 67 0 5 -42 4
-230 -1 -237 -3 -4 -12 -10 -20 -13 -8 -3 12 -6 44 -6 52 -1 57 0 40 12 -15
12 -18 29 -18 126 -1 101 1 114 19 126 17 12 6 14 -90 13 -61 0 -103 -3 -95
-6 25 -10 28 -21 25 -118 -2 -98 -10 -120 -51 -135 -13 -5 -38 -5 -58 1 -39
11 -48 33 -48 126 0 106 1 113 25 123 16 6 6 9 -43 9 -36 -1 -58 -3 -50 -6z"/>
<path d="M5940 1209 l0 -32 19 25 c15 19 27 24 48 21 l28 -5 0 -115 c-1 -96
-4 -118 -18 -128 -14 -10 -7 -12 41 -12 31 0 49 2 40 4 -22 5 -20 -5 -23 136
-2 80 1 117 9 118 30 3 53 -4 69 -23 17 -20 17 -20 17 11 l0 31 -115 0 -115 0
0 -31z"/>
<path d="M1714 1152 c-55 -8 -85 -86 -59 -149 24 -57 97 -59 129 -3 l20 35
-25 -22 c-46 -41 -92 -20 -102 47 -9 56 56 113 70 61 6 -25 32 -35 39 -16 12
30 -27 54 -72 47z"/>
<path d="M2211 1142 c-17 -8 -33 -22 -36 -32 -22 -69 -9 -121 36 -143 38 -18
63 -12 89 21 26 33 26 52 0 24 -31 -33 -66 -28 -90 11 -32 52 -28 57 45 57 70
0 78 7 50 47 -19 27 -57 34 -94 15z m53 -18 c26 -25 19 -34 -29 -34 -38 0 -43
2 -38 18 13 34 42 41 67 16z"/>
<path d="M2576 1145 c-22 -9 -25 -13 -12 -18 24 -9 23 -142 -1 -156 -13 -7 -5
-9 31 -9 33 0 45 3 35 8 -10 7 -14 33 -15 95 -1 47 -3 87 -5 89 -2 2 -17 -2
-33 -9z"/>
<path d="M3050 1137 c-29 -18 -33 -19 -27 -4 8 22 -21 23 -49 2 -13 -11 -14
-14 -4 -13 12 2 16 -12 18 -74 2 -66 0 -77 -15 -81 -10 -3 4 -5 30 -6 42 -1
46 1 34 13 -9 9 -14 35 -13 72 1 53 4 60 29 74 24 13 29 13 38 0 5 -8 8 -48 7
-87 l-3 -73 35 0 c24 0 31 3 21 9 -9 6 -14 32 -15 78 -2 73 -7 87 -35 102 -12
7 -26 4 -51 -12z"/>
<path d="M3380 1152 c-8 -2 -23 -11 -32 -20 -16 -14 -18 -13 -18 1 0 19 -4 20
-37 11 -19 -5 -20 -8 -8 -20 21 -21 20 -217 -1 -239 -14 -13 -10 -15 33 -15
37 1 44 3 31 11 -12 7 -18 22 -18 48 0 35 2 38 25 33 63 -12 105 32 105 108 0
47 -46 94 -80 82z m39 -78 c14 -51 -8 -104 -43 -104 -32 0 -46 26 -46 84 0 82
68 97 89 20z"/>
<path d="M3550 1152 c-33 -5 -50 -20 -50 -43 0 -27 28 -24 32 4 4 31 48 31 59
-1 8 -20 4 -25 -24 -37 -36 -15 -77 -50 -77 -66 0 -44 47 -62 88 -33 20 14 22
14 22 0 0 -9 8 -16 19 -16 20 0 48 27 37 37 -3 3 -6 1 -6 -6 0 -7 -4 -9 -10
-6 -5 3 -10 37 -10 74 0 82 -18 103 -80 93z m47 -114 c-2 -36 -27 -61 -51 -52
-26 10 -19 52 12 68 38 21 41 20 39 -16z"/>
<path d="M3698 1144 c-29 -15 -37 -26 -15 -21 8 1 13 -19 15 -68 2 -57 0 -72
-14 -82 -15 -11 -10 -13 35 -12 45 1 49 3 33 15 -14 10 -18 25 -17 67 1 64 18
92 45 77 20 -11 36 2 25 20 -10 15 -41 12 -56 -6 -12 -15 -14 -15 -19 4 -5 19
-7 19 -32 6z"/>
<path d="M3910 1153 c-63 -18 -91 -73 -70 -138 24 -73 124 -75 143 -3 6 20 6
20 -14 -1 -11 -11 -28 -21 -38 -21 -27 0 -59 30 -67 63 l-6 27 66 0 c36 0 66
4 66 9 0 34 -48 73 -80 64z m24 -29 c26 -25 19 -34 -29 -34 -49 0 -53 4 -28
32 20 22 37 23 57 2z"/>
<path d="M4091 1141 c-19 -19 -25 -19 -22 2 2 13 -34 8 -55 -8 -13 -11 -14
-14 -4 -13 23 4 28 -132 5 -148 -12 -9 -5 -11 37 -11 29 -1 45 1 36 4 -20 5
-20 6 -22 78 -2 59 16 90 45 75 24 -13 36 7 16 27 -13 14 -17 13 -36 -6z"/>
<path d="M2054 1135 c-13 -11 -14 -14 -4 -13 23 4 28 -132 5 -148 -12 -9 -6
-12 32 -12 32 -1 43 2 33 8 -12 7 -16 28 -15 94 0 92 -8 104 -51 71z"/>
<path d="M2763 1139 c13 -8 17 -24 17 -75 0 -36 5 -74 10 -85 13 -24 62 -25
81 -2 13 15 11 16 -10 10 -41 -10 -51 8 -51 89 l0 74 -32 0 c-27 -1 -30 -2
-15 -11z"/>
<path d="M2873 1139 c15 -9 18 -23 17 -77 -3 -117 -4 -112 30 -99 17 6 30 15
30 20 0 4 -4 5 -10 2 -12 -7 -12 -9 -15 80 -2 39 -3 73 -4 78 -1 4 -16 7 -33
7 -28 -1 -30 -2 -15 -11z"/>
<path d="M4199 1137 c-8 -7 -21 -27 -27 -45 -33 -95 64 -179 125 -108 28 33
31 54 3 26 -11 -11 -29 -20 -39 -20 -27 0 -59 30 -67 63 l-6 27 66 0 c71 0 79
7 50 48 -17 25 -77 30 -105 9z m71 -16 c15 -29 14 -31 -35 -31 -38 0 -43 2
-38 18 14 36 56 44 73 13z"/>
<path d="M6526 985 c-3 -9 1 -18 10 -22 19 -7 39 11 30 26 -10 16 -33 13 -40
-4z"/>
<path d="M6666 985 c-3 -9 1 -18 10 -22 19 -7 39 11 30 26 -10 16 -33 13 -40
-4z"/>
<path d="M6806 985 c-3 -9 1 -18 10 -22 19 -7 39 11 30 26 -10 16 -33 13 -40
-4z"/>
</g>
</svg>
